<svg xmlns="http://www.w3.org/2000/svg" xmlns:xlink="http://www.w3.org/1999/xlink"><defs><clipPath id="_clipPath_aVozmt9KHRUqFGV9sZyxGjNk8uTfhI6H"><rect width="256" height="256"/></clipPath></defs><g clip-path="url(#_clipPath_aVozmt9KHRUqFGV9sZyxGjNk8uTfhI6H)"><rect width="256" height="256" style="fill:rgb(0,0,0)" fill-opacity="0"/><path d=" M 92.766 182.141 L 92.063 182.141 L 92.063 76.672 L 99.516 73.156 L 126.164 73.156 L 126.164 73.156 Q 142.195 73.156 152.18 83.352 L 152.18 83.352 L 152.18 83.352 Q 161.672 93.055 161.672 108.313 L 161.672 108.313 L 161.672 108.313 Q 161.672 123.641 152.18 133.273 L 152.18 133.273 L 152.18 133.273 Q 146.555 138.969 139.031 141.5 L 139.031 141.5 L 163.359 176.305 L 150.984 182.141 L 150.281 182.141 L 123.211 143.469 L 106.125 143.469 L 106.125 175.813 L 92.766 182.141 L 92.766 182.141 Z  M 106.125 80.891 L 106.125 135.734 L 126.164 135.734 L 126.164 135.734 Q 135.375 135.734 142.547 128.492 L 142.547 128.492 L 142.547 128.492 Q 147.609 123.359 147.609 108.313 L 147.609 108.313 L 147.609 108.313 Q 147.609 93.969 142.547 88.133 L 142.547 88.133 L 142.547 88.133 Q 136.289 80.891 126.164 80.891 L 126.164 80.891 L 106.125 80.891 L 106.125 80.891 Z " fill-rule="evenodd" fill="rgb(0,0,0)"/><mask id="_mask_Jt4n3vxe9z0c8JDdNvdp7vwj7cd9gbd1"><path d=" M 40 128 C 40 79.431 79.431 40 128 40 C 176.569 40 216 79.431 216 128 C 216 176.569 176.569 216 128 216 C 79.431 216 40 176.569 40 128 Z " fill="white" stroke="none"/></mask><path d=" M 40 128 C 40 79.431 79.431 40 128 40 C 176.569 40 216 79.431 216 128 C 216 176.569 176.569 216 128 216 C 79.431 216 40 176.569 40 128 Z " fill="none" mask="url(#_mask_Jt4n3vxe9z0c8JDdNvdp7vwj7cd9gbd1)" vector-effect="non-scaling-stroke" stroke-width="35.2" stroke="rgb(0,0,0)" stroke-linejoin="miter" stroke-linecap="square" stroke-miterlimit="3"/></g></svg>